<svg viewBox="0 0 1365 1158" xmlns="http://www.w3.org/2000/svg">
  <rect width="100%" height="100%" fill="none"/>

  <defs>
    <style>
      .navy{fill:#2c3e50}
      .green{fill:#82a977;stroke:#111;stroke-width:2}
      .gray{fill:#98a0a6;stroke:#111;stroke-width:2}
      .blue{fill:#a9d4f5;stroke:#1a2b3d;stroke-width:2}
    </style>
  </defs>

  <path class="navy" d="
    M137 502
    C210 140 544 69 704 112
    C923 77 1092 207 1168 502
    L1026 502
    C976 287 809 217 652 228
    C480 240 338 324 278 502
    Z"/>

  <path class="navy" d="M173 502h101v348H173C77 850 20 774 20 677S77 502 173 502Z"/>
  <path class="gray" d="M172 558v238C114 786 74 738 74 677s40-109 98-119Z"/>
  <rect x="220" y="557" width="32" height="239" rx="4" fill="#98a0a6"/>

  <path class="navy" d="M1192 502h-101v348h101c96 0 153-76 153-173s-57-175-153-175Z"/>
  <path class="gray" d="M1193 558v238c58-10 98-58 98-119s-40-109-98-119Z"/>
  <rect x="1053" y="557" width="32" height="239" rx="4" fill="#98a0a6"/>

  <path class="green" d="
    M650 590
    C623 590 590 593 559 598
    C536 550 500 523 453 523
    C397 523 351 569 351 625
    C351 655 364 683 365 706
    C329 752 308 793 308 833
    C308 998 476 1069 651 1069
    C826 1069 999 998 999 833
    C999 793 976 752 940 706
    C941 683 956 655 956 625
    C956 569 910 523 854 523
    C807 523 769 550 746 598
    C713 593 679 590 650 590
    Z"/>

  <circle class="navy" cx="456" cy="637" r="70"/>
  <circle class="navy" cx="852" cy="637" r="70"/>
  <ellipse class="blue" cx="456" cy="637" rx="23" ry="31"/>
  <ellipse class="blue" cx="852" cy="637" rx="23" ry="31"/>

  <rect class="navy" x="529" y="845" width="247" height="46" rx="23"/>
</svg>
